<svg width="764" height="206" viewBox="0 0 764 206" fill="none" xmlns="http://www.w3.org/2000/svg">
<path d="M695.216 205.147C681.613 205.147 669.2 201.818 657.975 195.159C646.845 188.5 637.904 179.559 631.15 168.334C624.491 157.109 621.162 144.743 621.162 131.235C621.162 117.632 624.491 105.219 631.15 93.994C637.904 82.7692 646.845 73.8275 657.975 67.1688C669.2 60.51 681.613 57.1807 695.216 57.1807C713.48 57.1807 728.7 63.0308 740.876 74.7312C753.147 86.4315 760.567 102.413 763.135 122.674C763.326 124.481 763.468 126.717 763.563 129.38C763.659 132.044 763.706 137.228 763.706 144.933H651.411C654.455 154.541 659.925 162.294 667.82 168.191C675.811 174.089 684.943 177.038 695.216 177.038C707.487 177.038 718.284 172.567 727.606 163.625L736.025 155.349L752.719 178.607L746.441 184.6C731.506 198.298 714.431 205.147 695.216 205.147ZM733.742 117.395C731.173 107.026 726.56 99.0831 719.901 93.5659C713.338 88.0487 705.109 85.29 695.216 85.29C684.943 85.29 675.811 88.2389 667.82 94.1367C659.925 100.034 654.455 107.787 651.411 117.395H733.742Z" fill="white"/>
<path d="M604.388 205.147H576.992V57.1807V57.1807C585.792 60.6618 595.588 60.6618 604.388 57.1807V57.1807V205.147Z" fill="white"/>
<path d="M505.865 205.625C498.065 205.625 490.883 204.817 484.319 203.2C477.851 201.487 472.381 199.632 467.91 197.635C463.439 195.542 460.3 193.83 458.493 192.498L452.072 188.075L462.488 162.676L472.333 168.955C473.855 170.001 476.186 171.285 479.325 172.807C482.559 174.234 486.412 175.566 490.883 176.803C495.354 177.944 500.348 178.515 505.865 178.515C510.716 178.515 515.568 177.992 520.419 176.945C525.365 175.804 529.456 173.949 532.69 171.38C535.924 168.812 537.541 165.388 537.541 161.107C537.541 157.397 535.116 154.543 530.264 152.546C525.413 150.453 517.946 148.408 507.862 146.41C502.155 145.174 496.305 143.699 490.312 141.987C466.34 135.233 454.355 122.011 454.355 102.32C454.355 88.0511 459.301 77.0642 469.194 69.359C479.182 61.5588 492.88 57.6587 510.288 57.6587C518.088 57.6587 525.223 58.5148 531.691 60.2271C538.255 61.8442 543.772 63.6991 548.243 65.7919C552.809 67.7895 555.996 69.4542 557.803 70.7859C559.61 72.0225 561.465 73.3067 563.368 74.6385L556.804 100.608C553.094 98.6099 549.432 96.6123 545.817 94.6147C542.298 92.5219 537.399 90.3816 531.12 88.1938C524.842 85.9108 517.898 84.7693 510.288 84.7693C491.358 84.7693 481.893 90.5719 481.893 102.177C481.893 107.219 484.557 110.976 489.884 113.449C495.211 115.923 503.439 118.301 514.569 120.584C520.181 121.725 525.746 123.057 531.263 124.579C553.808 130.857 565.08 142.986 565.08 160.964C565.08 170.001 562.512 177.849 557.375 184.508C552.333 191.166 545.342 196.351 536.4 200.061C527.553 203.77 517.375 205.625 505.865 205.625Z" fill="white"/>
<path d="M439.71 205.147H412.314V188.596C398.426 199.63 382.873 205.147 365.656 205.147C352.053 205.147 339.639 201.818 328.414 195.159C317.285 188.5 308.343 179.559 301.589 168.334C294.93 157.109 291.601 144.743 291.601 131.235C291.601 117.632 294.93 105.219 301.589 93.994C308.343 82.7692 317.285 73.8275 328.414 67.1688C339.639 60.51 352.053 57.1807 365.656 57.1807C382.873 57.1807 398.426 62.6979 412.314 73.7324V57.1807H439.71V205.147ZM365.656 177.038C378.307 177.038 389.104 172.567 398.046 163.625C406.987 154.588 411.458 143.792 411.458 131.235C411.458 118.584 406.987 107.787 398.046 98.8453C389.104 89.8085 378.307 85.29 365.656 85.29C353.004 85.29 342.207 89.8085 333.266 98.8453C324.324 107.787 319.853 118.584 319.853 131.235C319.853 143.792 324.324 154.588 333.266 163.625C342.207 172.567 353.004 177.038 365.656 177.038Z" fill="white"/>
<path d="M307.645 205.147H269.262L206.765 145.932L193.067 158.631V205.147H165.671V0.391113H193.067V122.246L262.841 57.1806H301.509L226.598 127.24L307.645 205.147Z" fill="white"/>
<path d="M577.228 6.09863H604.154V26.6474C604.154 34.0829 598.126 40.1105 590.691 40.1105V40.1105C583.255 40.1105 577.228 34.0828 577.228 26.6474V6.09863Z" fill="#FF5001"/>
<path d="M29.3041 120.697C28.6092 123.935 28.263 127.318 28.263 130.845C28.263 143.402 32.7338 154.198 41.6756 163.235C46.3406 167.851 51.4887 171.271 57.117 173.504V202.864C50.0211 201.228 43.3046 198.529 36.9669 194.769C25.7423 188.11 16.8004 179.168 10.1417 167.944C3.48296 156.719 0.151367 144.353 0.151367 130.845C0.151367 119.289 2.55393 108.591 7.3593 98.7517L29.3041 120.697ZM140.91 98.7517C145.716 108.591 148.12 119.289 148.12 130.845C148.12 144.353 144.791 156.719 138.132 167.944C131.474 179.168 122.531 188.11 111.307 194.769C105.074 198.467 98.4866 201.135 91.5492 202.78V173.348C96.9767 171.113 101.947 167.744 106.456 163.235C115.492 154.198 120.011 143.401 120.011 130.845C120.011 127.321 119.657 123.942 118.956 120.705L140.91 98.7517ZM74.2083 56.7905C87.7156 56.7907 100.083 60.1201 111.307 66.7786C114.001 68.3771 116.563 70.1095 118.994 71.9711L98.8307 92.1368C91.5872 87.3141 83.3808 84.9001 74.2083 84.8999C64.9824 84.8999 56.7178 87.3046 49.4141 92.1101L29.2752 71.9711C31.7072 70.1089 34.2715 68.3776 36.9669 66.7786C48.1914 60.1202 60.6057 56.7905 74.2083 56.7905Z" fill="white"/>
</svg>
