<svg width="764" height="206" viewBox="0 0 764 206" fill="none" xmlns="http://www.w3.org/2000/svg">
<path d="M695.304 205.499C681.701 205.499 669.287 202.169 658.063 195.511C646.933 188.852 637.991 179.91 631.237 168.686C624.579 157.461 621.249 145.095 621.249 131.587C621.249 117.984 624.579 105.57 631.237 94.3455C637.991 83.1208 646.933 74.1791 658.063 67.5203C669.287 60.8616 681.701 57.5322 695.304 57.5322C713.568 57.5322 728.788 63.3824 740.964 75.0828C753.235 86.7831 760.655 102.764 763.223 123.026C763.413 124.833 763.556 127.068 763.651 129.732C763.746 132.395 763.794 137.58 763.794 145.285H651.499C654.543 154.892 660.013 162.645 667.908 168.543C675.898 174.441 685.03 177.389 695.304 177.389C707.575 177.389 718.372 172.919 727.694 163.977L736.112 155.701L752.807 178.959L746.529 184.952C731.594 198.65 714.519 205.499 695.304 205.499ZM733.829 117.746C731.261 107.378 726.648 99.4347 719.989 93.9175C713.425 88.4002 705.197 85.6416 695.304 85.6416C685.03 85.6416 675.898 88.5905 667.908 94.4882C660.013 100.386 654.543 108.139 651.499 117.746H733.829Z" fill="#FF5001"/>
<path d="M604.476 205.499H577.08V57.5322C585.88 61.0133 595.676 61.0133 604.476 57.5322V205.499Z" fill="#FF5001"/>
<path d="M505.952 205.977C498.152 205.977 490.97 205.169 484.406 203.551C477.938 201.839 472.468 199.984 467.997 197.987C463.527 195.894 460.387 194.182 458.58 192.85L452.159 188.427L462.575 163.028L472.421 169.307C473.943 170.353 476.273 171.637 479.412 173.159C482.647 174.586 486.499 175.918 490.97 177.154C495.441 178.296 500.435 178.867 505.952 178.867C510.804 178.867 515.655 178.343 520.506 177.297C525.453 176.156 529.543 174.301 532.777 171.732C536.012 169.164 537.629 165.739 537.629 161.459C537.629 157.749 535.203 154.895 530.352 152.897C525.5 150.805 518.033 148.76 507.95 146.762C502.242 145.525 496.392 144.051 490.399 142.339C466.428 135.585 454.442 122.362 454.442 102.672C454.442 88.4029 459.389 77.416 469.282 69.7108C479.27 61.9106 492.968 58.0105 510.376 58.0105C518.176 58.0105 525.31 58.8666 531.779 60.5789C538.342 62.196 543.859 64.0509 548.33 66.1437C552.896 68.1413 556.083 69.806 557.89 71.1377C559.698 72.3743 561.553 73.6585 563.455 74.9903L556.892 100.959C553.182 98.9617 549.519 96.9641 545.905 94.9665C542.385 92.8737 537.486 90.7334 531.208 88.5456C524.93 86.2626 517.986 85.1211 510.376 85.1211C491.446 85.1211 481.981 90.9237 481.981 102.529C481.981 107.571 484.644 111.328 489.971 113.801C495.298 116.274 503.527 118.653 514.656 120.936C520.269 122.077 525.833 123.409 531.351 124.931C553.895 131.209 565.167 143.337 565.167 161.316C565.167 170.353 562.599 178.201 557.462 184.859C552.421 191.518 545.429 196.702 536.487 200.412C527.641 204.122 517.462 205.977 505.952 205.977Z" fill="#FF5001"/>
<path d="M439.798 205.499H412.402V188.947C398.514 199.982 382.961 205.499 365.743 205.499C352.14 205.499 339.727 202.169 328.502 195.511C317.372 188.852 308.43 179.91 301.677 168.686C295.018 157.461 291.688 145.095 291.688 131.587C291.688 117.984 295.018 105.57 301.677 94.3455C308.43 83.1208 317.372 74.1791 328.502 67.5203C339.727 60.8616 352.14 57.5322 365.743 57.5322C382.961 57.5322 398.514 63.0495 412.402 74.0839V57.5322H439.798V205.499ZM365.743 177.389C378.395 177.389 389.191 172.919 398.133 163.977C407.075 154.94 411.546 144.143 411.546 131.587C411.546 118.935 407.075 108.139 398.133 99.1969C389.191 90.16 378.395 85.6416 365.743 85.6416C353.092 85.6416 342.295 90.16 333.353 99.1969C324.411 108.139 319.941 118.935 319.941 131.587C319.941 144.143 324.411 154.94 333.353 163.977C342.295 172.919 353.092 177.389 365.743 177.389Z" fill="#FF5001"/>
<path d="M307.732 205.499H269.349L206.852 146.284L193.154 158.983V205.499H165.758V0.742676H193.154V122.598L262.928 57.5322H301.597L226.686 127.592L307.732 205.499Z" fill="#FF5001"/>
<path d="M577.315 6.4502H604.241V26.999C604.241 34.4344 598.213 40.462 590.778 40.462C583.343 40.462 577.315 34.4344 577.315 26.999V6.4502Z" fill="#FF5001"/>
<path d="M29.3916 121.048C28.6966 124.287 28.3504 127.67 28.3504 131.197C28.3504 143.753 32.8212 154.55 41.763 163.587C46.428 168.203 51.5761 171.623 57.2044 173.856V203.216C50.1085 201.579 43.3921 198.88 37.0543 195.121C25.8297 188.462 16.8878 179.52 10.2291 168.295C3.57037 157.071 0.23877 144.704 0.23877 131.197C0.23877 119.641 2.64134 108.943 7.4467 99.1033L29.3916 121.048ZM140.997 99.1033C145.803 108.943 148.208 119.641 148.208 131.197C148.208 144.704 144.878 157.071 138.22 168.295C131.561 179.52 122.619 188.462 111.394 195.121C105.161 198.818 98.574 201.487 91.6366 203.131V173.7C97.0641 171.464 102.034 168.095 106.543 163.587C115.579 154.55 120.098 143.753 120.098 131.197C120.098 127.673 119.745 124.293 119.044 121.057L140.997 99.1033ZM74.2957 57.1421C87.803 57.1423 100.17 60.4716 111.394 67.1302C114.089 68.7287 116.65 70.461 119.082 72.3227L98.9181 92.4884C91.6746 87.6657 83.4682 85.2517 74.2957 85.2515C65.0698 85.2515 56.8052 87.6561 49.5015 92.4616L29.3626 72.3227C31.7947 70.4604 34.3589 68.7291 37.0543 67.1302C48.2788 60.4718 60.6931 57.1421 74.2957 57.1421Z" fill="#FF5001"/>
</svg>
